<svg version="1.2" baseProfile="tiny-ps" xmlns="http://www.w3.org/2000/svg" viewBox="0 0 1169 1559" width="1169" height="1559"><title>Siemens-logo-svg</title><style>tspan { white-space:pre }.shp0 { fill: #009999 } </style><g id="Ebene_x0020_1"><path id="Layer" fill-rule="evenodd" class="shp0" d="M1053.48 55.43L1053.48 346.95C902.34 289.94 768 261.11 650.24 261.11C580.27 261.11 524.94 274.02 483.17 298.97C441.41 324.14 420.1 355.13 420.1 391.7C420.1 440.33 467.89 483.57 562.83 522.3L837.11 655.69C1058 761.33 1168.23 901.6 1168.23 1077.81C1168.23 1224.32 1109.67 1341.15 992.77 1427.64C875 1514.99 718.49 1558.23 521.93 1558.23C431.51 1558.23 350.13 1554.36 278 1546.18C205.88 1538.44 123.86 1522.52 31.29 1499.71L31.29 1194.63C200.5 1251.65 354 1280.48 491.36 1280.48C656.27 1280.48 738.3 1232.71 738.3 1136.33C738.3 1088.35 704.92 1049.62 637.32 1019.29L332.69 889.55C219.45 838.78 135.91 777.25 82.09 704.31C27.41 630.73 0.71 546.39 0.71 450.01C0.71 315.11 57.12 206.46 170.14 123.84C282.53 41.87 433.01 0.78 619.89 0.78C681.24 0.78 750.35 6.15 828.71 16.05C906.22 26.59 981.36 39.5 1053.48 55.43L1053.48 55.43Z" /></g></svg>