<?xml version="1.0" encoding="UTF-8"?><svg xmlns="http://www.w3.org/2000/svg" viewBox="100 39 150 150" width="150" height="150">
<path d="M149.95 119.95C156.61 119.95 163.27 119.95 169.93 119.96C173.31 119.96 176.69 119.96 180.07 119.96C186.73 119.95 193.39 119.95 200.05 119.95C199.98 121.45 199.5 128.66 200.18 129.6C200.86 130.55 204.18 130 205.25 130C210.17 130 215.14 130.16 220.05 129.95C219.84 134.86 220 139.83 220 144.75C220 145.82 219.45 149.14 220.4 149.82C221.34 150.5 228.55 150.02 230.05 149.95C229.73 157.35 230 164.84 230 172.25C230 173.65 229.22 178.98 230.4 179.83C231.33 180.49 238.55 180.02 240.05 179.95C240.03 186.47 240.02 192.98 240 199.5C236.66 199.66 233.32 199.82 229.98 199.99C229.88 199.94 229.78 199.89 229.68 199.84C230.08 198.8 230.3 190.68 229.6 190.17C228.67 189.51 221.39 189.99 219.95 190.13C216.74 190.08 213.53 190.02 210.32 189.97C210.21 189.79 210.11 189.61 210 189.43C209.82 186.29 209.64 183.14 209.46 180C210.03 178.92 210.43 170.77 209.6 170.17C208.66 169.49 201.07 169.98 199.92 170.5C199.78 170.36 199.64 170.22 199.5 170.08C200.12 168.69 200.54 160.52 199.22 160.06C198.4 159.76 190.47 159.98 190.17 160.4C189.49 161.34 189.98 168.93 190.5 170.08C190.36 170.22 190.22 170.36 190.08 170.5C188.69 169.88 180.52 169.46 180.06 170.78C179.49 172.39 180.73 179.01 179.6 179.83C177.99 180.98 172.35 179.41 169.92 180.5C169.78 180.36 169.64 180.22 169.5 180.08C171.17 176.36 170 162.12 170 157.25C170 155.92 170.73 150.99 169.6 150.17C168.81 149.6 166.68 150 165.75 150C164.51 150 161.43 149.43 160.4 150.17C159 151.18 160.93 158.07 159.83 159.6C159.01 160.73 152.39 159.49 150.78 160.06C149.46 160.52 149.88 168.69 150.5 170.08C150.36 170.22 150.22 170.36 150.08 170.5C148.93 169.98 141.34 169.49 140.4 170.17C139.57 170.77 139.97 178.92 140.54 180C140.36 183.14 140.18 186.29 140 189.43C139.89 189.61 139.79 189.79 139.68 189.97C136.48 189.99 133.27 190.02 130.07 190.04C128.6 189.98 121.32 189.51 120.4 190.17C119.5 190.82 120 193.75 120 194.75C120 197.12 120.77 208.1 119.75 209.5C118.17 211.66 111 208.11 110.06 210.78C109.08 213.54 110 228.28 110 232.25C110 233.89 110.79 238.26 109.83 239.6C109.24 240.42 101.12 240.02 100 239.5C99.99 234.75 100 230 100 225.25C100 224.18 100.55 220.85 99.6 220.17C98.67 219.51 91.45 219.98 89.95 220.05C89.95 216.68 89.95 213.32 89.95 209.95C91.27 210.01 99.32 210.3 99.83 209.6C100.49 208.67 100.02 201.45 99.95 199.95C101.45 200.02 108.67 200.49 109.6 199.83C110.55 199.15 110 195.82 110 194.75C110 189.83 110.16 184.86 109.95 179.95C111.45 180.02 118.67 180.49 119.6 179.83C120.78 178.98 120 173.65 120 172.25C120 164.84 120.27 157.35 119.95 149.95C121.45 150.02 128.67 150.49 129.6 149.83C130.55 149.15 130 145.82 130 144.75C130 139.83 130.16 134.86 129.95 129.95C134.86 130.16 139.83 130 144.75 130C145.82 130 149.15 130.55 149.83 129.6C150.49 128.67 150.02 121.45 149.95 119.95ZM180.4 130.17C179.7 130.68 180 138.42 180 139.75C180 141.35 179.48 148.63 180.17 149.6C180.82 150.5 183.75 150 184.75 150C187.01 150 198.33 150.74 199.6 149.83C200.3 149.32 200 141.58 200 140.25C200 138.03 201.03 132.32 199.72 130.54C198.96 129.49 196.38 130 195.25 130C192.99 130 181.67 129.26 180.4 130.17ZM210.4 150.17C209.5 150.82 210 153.75 210 154.75C210 155.89 209.49 158.65 210.17 159.6C210.45 159.98 219.04 160.23 219.6 159.83C220.5 159.18 220 156.25 220 155.25C220 154.02 220.47 151.56 219.72 150.54C219.3 149.95 211.07 149.7 210.4 150.17ZM240.5 200C243.68 199.98 246.87 199.97 250.05 199.95C249.98 201.45 249.51 208.67 250.17 209.6C250.68 210.3 258.73 210.01 260.05 209.95C260.05 213.32 260.05 216.68 260.05 220.05C258.55 219.98 251.33 219.51 250.4 220.17C249.45 220.85 250 224.18 250 225.25C250 230 250.01 234.75 250 239.5C248.88 240.02 240.76 240.42 240.17 239.6C239.5 238.67 240 231.78 240 230.25C240 223.25 240 216.25 240 209.25C240 206.44 239.3 202.56 240.5 200ZM89.95 239.95C93.13 239.97 96.32 239.98 99.5 240C99.67 243.4 99.83 246.8 100 250.2C96.67 250.16 93.33 250.12 90 250.09C89.98 246.71 89.97 243.33 89.95 239.95ZM250.5 240C253.68 239.98 256.87 239.97 260.05 239.95C260.03 243.33 260.02 246.71 260 250.09C256.67 250.12 253.33 250.16 250 250.2C250.17 246.8 250.33 243.4 250.5 240Z" fill="#b2e1ed" fill-rule="evenodd" stroke="#b2e1ed" stroke-width="0.25" stroke-linejoin="round"/>
<path d="M169.89 109.93C169.9 113.27 169.91 116.62 169.93 119.96C163.27 119.95 156.61 119.95 149.95 119.95C149.9 118.48 149.44 111.27 150.1 110.37C150.84 109.36 154.12 109.92 155.25 109.92C160.13 109.92 165.02 109.84 169.89 109.93ZM180.11 109.93C184.98 109.84 189.87 109.92 194.75 109.92C195.88 109.92 199.16 109.36 199.9 110.37C200.56 111.27 200.1 118.48 200.05 119.95C193.39 119.95 186.73 119.95 180.07 119.96C180.09 116.62 180.1 113.27 180.11 109.93ZM149.95 119.95C150.02 121.45 150.49 128.67 149.83 129.6C149.15 130.55 145.82 130 144.75 130C139.83 130 134.86 130.16 129.95 129.95C129.9 128.48 129.44 121.27 130.1 120.37C130.84 119.36 134.12 119.92 135.25 119.92C140.14 119.92 145.09 119.77 149.95 119.95ZM200.05 119.95C204.91 119.77 209.86 119.92 214.75 119.92C215.88 119.92 219.16 119.36 219.9 120.37C220.56 121.27 220.1 128.48 220.05 129.95C215.14 130.16 210.17 130 205.25 130C204.18 130 200.86 130.55 200.18 129.6C199.5 128.66 199.98 121.45 200.05 119.95ZM129.95 129.95C130.16 134.86 130 139.83 130 144.75C130 145.82 130.55 149.15 129.6 149.83C128.67 150.49 121.45 150.02 119.95 149.95C119.77 145.09 119.92 140.14 119.92 135.25C119.92 134.12 119.36 130.84 120.37 130.1C121.27 129.44 128.48 129.9 129.95 129.95ZM220.05 129.95C221.52 129.9 228.73 129.44 229.63 130.1C230.64 130.84 230.08 134.12 230.08 135.25C230.08 140.14 230.23 145.09 230.05 149.95C228.55 150.02 221.34 150.5 220.4 149.82C219.45 149.14 220 145.82 220 144.75C220 139.83 219.84 134.86 220.05 129.95ZM119.95 149.95C120.27 157.35 120 164.84 120 172.25C120 173.65 120.78 178.98 119.6 179.83C118.67 180.49 111.45 180.02 109.95 179.95C109.67 172.43 109.92 164.8 109.92 157.25C109.92 155.85 109.17 150.98 110.37 150.1C111.27 149.44 118.48 149.9 119.95 149.95ZM230.05 149.95C231.52 149.9 238.73 149.44 239.63 150.1C240.83 150.98 240.08 155.85 240.08 157.25C240.08 164.8 240.33 172.43 240.05 179.95C238.55 180.02 231.33 180.49 230.4 179.83C229.22 178.98 230 173.65 230 172.25C230 164.84 229.73 157.35 230.05 149.95ZM109.95 179.95C110.16 184.86 110 189.83 110 194.75C110 195.82 110.55 199.15 109.6 199.83C108.67 200.49 101.45 200.02 99.95 199.95C99.77 195.09 99.92 190.14 99.92 185.25C99.92 184.12 99.36 180.84 100.37 180.1C101.27 179.44 108.48 179.9 109.95 179.95ZM240.05 179.95C241.52 179.9 248.73 179.44 249.63 180.1C250.64 180.84 250.08 184.12 250.08 185.25C250.08 190.14 250.23 195.09 250.05 199.95C246.87 199.97 243.68 199.98 240.5 200C240.33 199.83 240.17 199.67 240 199.5C240.02 192.98 240.03 186.47 240.05 179.95ZM130.07 190.04C133.27 190.02 136.48 189.99 139.68 189.97C140.41 192.18 139.15 198.17 140.17 199.6C140.68 200.31 148.69 200 150 199.92C166.67 199.92 183.33 199.92 200 199.92C201.31 200 209.32 200.31 209.83 199.6C210.85 198.17 209.59 192.18 210.32 189.97C213.53 190.02 216.74 190.08 219.95 190.13C220 193.29 220.04 196.45 220.08 199.61C220.05 203.08 220.01 206.55 219.97 210.03C216.48 210.07 212.99 210.11 209.5 210.16C206.28 210.13 203.05 210.11 199.83 210.08C193.28 210.08 186.72 210.08 180.17 210.08C176.72 210.08 173.28 210.08 169.83 210.08C163.28 210.08 156.72 210.08 150.17 210.08C146.95 210.11 143.72 210.13 140.5 210.16C137.01 210.12 133.52 210.08 130.03 210.03C130.05 203.37 130.06 196.71 130.07 190.04ZM99.95 199.95C100.02 201.45 100.49 208.67 99.83 209.6C99.32 210.3 91.27 210.01 89.95 209.95C89.9 208.48 89.44 201.27 90.1 200.37C90.67 199.59 98.58 199.9 99.95 199.95ZM250.05 199.95C251.52 199.9 258.73 199.44 259.63 200.1C260.41 200.67 260.1 208.58 260.05 209.95C258.73 210.01 250.68 210.3 250.17 209.6C249.51 208.67 249.98 201.45 250.05 199.95ZM89.95 209.95C89.95 213.32 89.95 216.68 89.95 220.05C88.48 220.1 81.27 220.56 80.37 219.9C79.74 219.44 79.74 210.56 80.37 210.1C81.27 209.44 88.48 209.9 89.95 209.95ZM130.03 210.03C130 211.56 129.5 218.66 130.17 219.6C130.71 220.35 139.15 219.98 140.5 219.84C143.72 219.87 146.95 219.89 150.17 219.92C153.4 219.97 156.62 220.02 159.85 220.08C159.9 223.39 159.96 226.7 160.01 230.01C158.69 229.99 150.66 229.71 150.17 230.4C149.48 231.36 150 238.43 149.99 240.01C146.67 240 143.34 239.99 140.02 239.98C140 238.61 140.29 230.67 139.6 230.17C138.33 229.26 127.01 230 124.75 230C123.75 230 120.82 230.5 120.17 229.6C119.26 228.33 120 217.01 120 214.75C120 213.75 119.5 210.83 120.4 210.18C121.36 209.49 128.48 210 130.03 210.03ZM219.97 210.03C223.27 210.02 226.57 210.02 229.87 210.02C230.35 214.86 230 219.88 230 224.75C230 225.82 230.55 229.15 229.6 229.83C228.33 230.74 217.01 230 214.75 230C213.75 230 210.82 229.5 210.17 230.4C209.49 231.36 210 238.4 209.98 239.98C206.66 239.99 203.33 240 200.01 240.01C200 238.43 200.52 231.36 199.83 230.4C199.34 229.71 191.31 229.99 189.99 230.01C190.04 226.7 190.1 223.39 190.15 220.08C193.38 220.02 196.6 219.97 199.83 219.92C203.05 219.89 206.28 219.87 209.5 219.84C210.85 219.98 219.29 220.35 219.83 219.6C220.51 218.65 220 211.57 219.97 210.03ZM260.05 209.95C261.52 209.9 268.73 209.44 269.63 210.1C270.26 210.56 270.26 219.44 269.63 219.9C268.73 220.56 261.52 220.1 260.05 220.05C260.05 216.68 260.05 213.32 260.05 209.95ZM89.95 220.05C91.45 219.98 98.67 219.51 99.6 220.17C100.55 220.85 100 224.18 100 225.25C100 230 99.99 234.75 100 239.5C99.83 239.67 99.67 239.83 99.5 240C96.32 239.98 93.13 239.97 89.95 239.95C89.95 233.32 89.95 226.68 89.95 220.05ZM260.05 220.05C260.05 226.68 260.05 233.32 260.05 239.95C256.87 239.97 253.68 239.98 250.5 240C250.33 239.83 250.17 239.67 250 239.5C250.01 234.75 250 230 250 225.25C250 224.18 249.45 220.85 250.4 220.17C251.33 219.51 258.55 219.98 260.05 220.05ZM89.95 239.95C89.97 243.33 89.98 246.71 90 250.09C88.42 250.07 81.32 250.6 80.37 249.9C79.74 249.44 79.74 240.56 80.37 240.1C81.27 239.44 88.48 239.9 89.95 239.95ZM149.99 240.01C153.29 240.05 156.59 240.1 159.89 240.14C159.93 240.26 159.98 240.38 160.03 240.5C160 241.8 159.69 249.32 160.4 249.83C161.39 250.54 168.41 249.98 170.04 250.04C170.1 251.5 170.56 258.73 169.9 259.63C169.24 260.53 166.74 260.08 165.75 260.08C161.92 260.08 158.08 260.08 154.25 260.08C153.26 260.08 150.76 260.53 150.1 259.63C149.37 258.64 149.95 251.7 149.81 250C149.87 246.67 149.93 243.34 149.99 240.01ZM170.04 240.16C173.35 240.16 176.65 240.16 179.96 240.16C179.96 243.45 179.96 246.74 179.96 250.04C176.65 250.04 173.35 250.04 170.04 250.04C170.04 246.74 170.04 243.45 170.04 240.16ZM190.11 240.14C193.41 240.1 196.71 240.05 200.01 240.01C200.07 243.34 200.13 246.67 200.19 250C200.05 251.7 200.63 258.64 199.9 259.63C199.24 260.53 196.74 260.08 195.75 260.08C191.92 260.08 188.08 260.08 184.25 260.08C183.26 260.08 180.76 260.53 180.1 259.63C179.44 258.73 179.9 251.5 179.96 250.04C181.59 249.98 188.61 250.54 189.6 249.83C190.31 249.32 190 241.8 189.97 240.5C190.02 240.38 190.07 240.26 190.11 240.14ZM260.05 239.95C261.52 239.9 268.73 239.44 269.63 240.1C270.26 240.56 270.26 249.44 269.63 249.9C268.68 250.6 261.58 250.07 260 250.09C260.02 246.71 260.03 243.33 260.05 239.95Z" fill="#4b4950" fill-rule="evenodd" stroke="#4b4950" stroke-width="0.25" stroke-linejoin="round"/>
<path d="M180.11 109.93C180.1 113.27 180.09 116.62 180.07 119.96C176.69 119.96 173.31 119.96 169.93 119.96C169.91 116.62 169.9 113.27 169.89 109.93C169.41 107.45 170.09 100.52 169.62 100.22C168.77 99.69 164.88 100.36 163.75 100.36C158.08 100.36 152.42 100.36 146.75 100.36C145.51 100.36 141.31 99.64 140.38 100.22C139.83 100.57 141.26 108.93 139.73 110.1C138.87 110.76 136.77 110.36 135.75 110.36C134.43 110.36 131.36 110.93 130.27 110.1C129.09 109.2 129.1 102.13 129.7 100.75C131.06 97.63 137.21 101.08 139.46 99.62C140.42 99 138.62 91.16 140.27 89.9C141.43 89.01 144.83 89.64 146.25 89.64C151.92 89.64 157.58 89.64 163.25 89.64C164.76 89.64 168.5 88.95 169.73 89.9C172.13 91.74 168.95 97.25 170.38 99.46C170.8 100.11 177.99 99.15 179.25 99.7C181.42 100.65 180.51 107.88 180.11 109.93ZM169.5 180.08C166.31 180.08 163.12 180.07 159.93 180.07C159.99 178.73 160.32 170.69 159.6 170.17C158.7 169.53 151.91 169.99 150.5 170.08C149.88 168.69 149.46 160.52 150.78 160.06C152.39 159.49 159.01 160.73 159.83 159.6C160.93 158.07 159 151.18 160.4 150.17C161.43 149.43 164.51 150 165.75 150C166.68 150 168.81 149.6 169.6 150.17C170.73 150.99 170 155.92 170 157.25C170 162.12 171.17 176.36 169.5 180.08ZM199.5 170.08C196.5 170.08 193.5 170.08 190.5 170.08C189.98 168.93 189.49 161.34 190.17 160.4C190.47 159.98 198.4 159.76 199.22 160.06C200.54 160.52 200.12 168.69 199.5 170.08ZM150.08 170.5C150.08 173.69 150.07 176.88 150.07 180.07C146.89 180.05 143.71 180.02 140.54 180C139.97 178.92 139.57 170.77 140.4 170.17C141.34 169.49 148.93 169.98 150.08 170.5ZM190.08 170.5C190.22 173.66 190.36 176.82 190.5 179.98C190.5 183.31 190.5 186.64 190.5 189.97C185.46 190.21 180.32 190 175.25 190C174.18 190 170.85 190.55 170.17 189.6C169.48 188.64 170.02 182.1 169.92 180.5C172.35 179.41 177.99 180.98 179.6 179.83C180.73 179.01 179.49 172.39 180.06 170.78C180.52 169.46 188.69 169.88 190.08 170.5ZM209.46 180C206.29 180.02 203.11 180.05 199.93 180.07C199.93 176.88 199.92 173.69 199.92 170.5C201.07 169.98 208.66 169.49 209.6 170.17C210.43 170.77 210.03 178.92 209.46 180ZM130.07 190.04C130.06 196.71 130.05 203.37 130.03 210.03C128.48 210 121.36 209.49 120.4 210.18C119.5 210.83 120 213.75 120 214.75C120 217.01 119.26 228.33 120.17 229.6C120.82 230.5 123.75 230 124.75 230C127.01 230 138.33 229.26 139.6 230.17C140.29 230.67 140 238.61 140.02 239.98C137.56 240.68 130.53 239.89 130.22 240.38C129.24 241.94 131.69 248.6 129.73 250.1C128.35 251.16 123.96 250.36 122.25 250.36C114.99 250.36 107.17 251.16 100 250.2C99.83 246.8 99.67 243.4 99.5 240C99.67 239.83 99.83 239.67 100 239.5C101.12 240.02 109.24 240.42 109.83 239.6C110.79 238.26 110 233.89 110 232.25C110 228.28 109.08 213.54 110.06 210.78C111 208.11 118.17 211.66 119.75 209.5C120.77 208.1 120 197.12 120 194.75C120 193.75 119.5 190.82 120.4 190.17C121.32 189.51 128.6 189.98 130.07 190.04ZM240 199.5C240.17 199.67 240.33 199.83 240.5 200C239.3 202.56 240 206.44 240 209.25C240 216.25 240 223.25 240 230.25C240 231.78 239.5 238.67 240.17 239.6C240.76 240.42 248.88 240.02 250 239.5C250.17 239.67 250.33 239.83 250.5 240C250.33 243.4 250.17 246.8 250 250.2C242.83 251.16 235.01 250.36 227.75 250.36C226.04 250.36 221.65 251.16 220.27 250.1C218.31 248.6 220.76 241.94 219.78 240.38C219.47 239.89 212.44 240.68 209.98 239.98C210 238.4 209.49 231.36 210.17 230.4C210.82 229.5 213.75 230 214.75 230C217.01 230 228.33 230.74 229.6 229.83C230.55 229.15 230 225.82 230 224.75C230 219.88 230.35 214.86 229.87 210.02C229.91 206.67 229.94 203.33 229.98 199.99C233.32 199.82 236.66 199.66 240 199.5ZM140.02 239.98C143.34 239.99 146.67 240 149.99 240.01C149.93 243.34 149.87 246.67 149.81 250C148.36 250.47 140.77 250.86 139.9 249.73C139.1 248.69 139.63 241.36 140.02 239.98ZM200.01 240.01C203.33 240 206.66 239.99 209.98 239.98C210.37 241.36 210.9 248.69 210.1 249.73C209.23 250.86 201.64 250.47 200.19 250C200.13 246.67 200.07 243.34 200.01 240.01Z" fill="#90d0df" fill-rule="evenodd" stroke="#90d0df" stroke-width="0.25" stroke-linejoin="round"/>
<path d="M150.5 170.08C151.91 169.99 158.7 169.53 159.6 170.17C160.32 170.69 159.99 178.73 159.93 180.07C156.64 180.07 153.36 180.07 150.07 180.07C150.07 176.88 150.08 173.69 150.08 170.5C150.22 170.36 150.36 170.22 150.5 170.08ZM190.5 170.08C193.5 170.08 196.5 170.08 199.5 170.08C199.64 170.22 199.78 170.36 199.92 170.5C199.92 173.69 199.93 176.88 199.93 180.07C196.79 180.04 193.64 180.01 190.5 179.98C190.36 176.82 190.22 173.66 190.08 170.5C190.22 170.36 190.36 170.22 190.5 170.08ZM140.54 180C143.71 180.02 146.89 180.05 150.07 180.07C150.06 183.37 150.05 186.66 150.04 189.96C146.69 189.79 143.35 189.61 140 189.43C140.18 186.29 140.36 183.14 140.54 180ZM159.93 180.07C163.12 180.07 166.31 180.08 169.5 180.08C169.64 180.22 169.78 180.36 169.92 180.5C170.02 182.1 169.48 188.64 170.17 189.6C170.85 190.55 174.18 190 175.25 190C180.32 190 185.46 190.21 190.5 189.97C193.65 189.96 196.81 189.96 199.96 189.96C199.97 193.28 199.99 196.6 200 199.92C183.33 199.92 166.67 199.92 150 199.92C150.01 196.6 150.03 193.28 150.04 189.96C151.57 190 158.65 190.51 159.6 189.83C160.31 189.32 160 181.39 159.93 180.07ZM199.93 180.07C203.11 180.05 206.29 180.02 209.46 180C209.64 183.14 209.82 186.29 210 189.43C206.65 189.61 203.31 189.79 199.96 189.96C199.95 186.66 199.94 183.37 199.93 180.07ZM130.03 210.03C133.52 210.08 137.01 210.12 140.5 210.16C140.5 213.39 140.5 216.61 140.5 219.84C139.15 219.98 130.71 220.35 130.17 219.6C129.5 218.66 130 211.56 130.03 210.03ZM209.5 210.16C212.99 210.11 216.48 210.07 219.97 210.03C220 211.57 220.51 218.65 219.83 219.6C219.29 220.35 210.85 219.98 209.5 219.84C209.5 216.61 209.5 213.39 209.5 210.16Z" fill="#f5e8e5" fill-rule="evenodd" stroke="#f5e8e5" stroke-width="0.25" stroke-linejoin="round"/>
<path d="M150.17 210.08C156.72 210.08 163.28 210.08 169.83 210.08C169.84 213.38 169.86 216.68 169.88 219.98C166.54 220.01 163.19 220.04 159.85 220.08C156.62 220.02 153.4 219.97 150.17 219.92C150.17 216.64 150.17 213.36 150.17 210.08ZM180.17 210.08C186.72 210.08 193.28 210.08 199.83 210.08C199.83 213.36 199.83 216.64 199.83 219.92C196.6 219.97 193.38 220.02 190.15 220.08C186.81 220.04 183.46 220.01 180.12 219.98C180.14 216.68 180.16 213.38 180.17 210.08ZM170.04 240.16C170.04 243.45 170.04 246.74 170.04 250.04C168.41 249.98 161.39 250.54 160.4 249.83C159.69 249.32 160 241.8 160.03 240.5C163.37 240.39 166.7 240.27 170.04 240.16ZM179.96 240.16C183.3 240.27 186.63 240.39 189.97 240.5C190 241.8 190.31 249.32 189.6 249.83C188.61 250.54 181.59 249.98 179.96 250.04C179.96 246.74 179.96 243.45 179.96 240.16Z" fill="#ffffff" fill-rule="evenodd" stroke="#ffffff" stroke-width="0.25" stroke-linejoin="round"/>
<path d="M180.4 130.17C181.67 129.26 192.99 130 195.25 130C196.38 130 198.96 129.49 199.72 130.54C201.03 132.32 200 138.03 200 140.25C200 141.58 200.3 149.32 199.6 149.83C198.33 150.74 187.01 150 184.75 150C183.75 150 180.82 150.5 180.17 149.6C179.48 148.63 180 141.35 180 139.75C180 138.42 179.7 130.68 180.4 130.17ZM210.4 150.17C211.07 149.7 219.3 149.95 219.72 150.54C220.47 151.56 220 154.02 220 155.25C220 156.25 220.5 159.18 219.6 159.83C219.04 160.23 210.45 159.98 210.17 159.6C209.49 158.65 210 155.89 210 154.75C210 153.75 209.5 150.82 210.4 150.17Z" fill="#c3f9f6" fill-rule="evenodd" stroke="#c3f9f6" stroke-width="0.25" stroke-linejoin="round"/>
<path d="M159.85 220.08C163.19 220.04 166.54 220.01 169.88 219.98C169.94 220.1 170.01 220.23 170.07 220.35C170.05 223.44 170.02 226.53 170 229.62C166.67 229.75 163.34 229.88 160.01 230.01C159.96 226.7 159.9 223.39 159.85 220.08ZM180.12 219.98C183.46 220.01 186.81 220.04 190.15 220.08C190.1 223.39 190.04 226.7 189.99 230.01C186.66 229.88 183.33 229.75 180 229.62C179.98 226.53 179.95 223.44 179.93 220.35C179.99 220.23 180.06 220.1 180.12 219.98ZM160.01 230.01C159.97 233.39 159.93 236.77 159.89 240.14C156.59 240.1 153.29 240.05 149.99 240.01C150 238.43 149.48 231.36 150.17 230.4C150.66 229.71 158.69 229.99 160.01 230.01ZM189.99 230.01C191.31 229.99 199.34 229.71 199.83 230.4C200.52 231.36 200 238.43 200.01 240.01C196.71 240.05 193.41 240.1 190.11 240.14C190.07 236.77 190.03 233.39 189.99 230.01Z" fill="#9aa3e3" fill-rule="evenodd" stroke="#9aa3e3" stroke-width="0.25" stroke-linejoin="round"/>
<path d="M140.5 210.16C143.72 210.13 146.95 210.11 150.17 210.08C150.17 213.36 150.17 216.64 150.17 219.92C146.95 219.89 143.72 219.87 140.5 219.84C140.5 216.61 140.5 213.39 140.5 210.16ZM169.83 210.08C173.28 210.08 176.72 210.08 180.17 210.08C180.16 213.38 180.14 216.68 180.12 219.98C180.06 220.1 179.99 220.23 179.93 220.35C176.64 220.35 173.36 220.35 170.07 220.35C170.01 220.23 169.94 220.1 169.88 219.98C169.86 216.68 169.84 213.38 169.83 210.08ZM199.83 210.08C203.05 210.11 206.28 210.13 209.5 210.16C209.5 213.39 209.5 216.61 209.5 219.84C206.28 219.87 203.05 219.89 199.83 219.92C199.83 216.64 199.83 213.36 199.83 210.08Z" fill="#e37c9b" fill-rule="evenodd" stroke="#e37c9b" stroke-width="0.25" stroke-linejoin="round"/>
<path d="M140 189.43C143.35 189.61 146.69 189.79 150.04 189.96C150.03 193.28 150.01 196.6 150 199.92C148.69 200 140.68 200.31 140.17 199.6C139.15 198.17 140.41 192.18 139.68 189.97C139.79 189.79 139.89 189.61 140 189.43ZM210 189.43C210.11 189.61 210.21 189.79 210.32 189.97C209.59 192.18 210.85 198.17 209.83 199.6C209.32 200.31 201.31 200 200 199.92C199.99 196.6 199.97 193.28 199.96 189.96C203.31 189.79 206.65 189.61 210 189.43Z" fill="#eed3ce" fill-rule="evenodd" stroke="#eed3ce" stroke-width="0.25" stroke-linejoin="round"/>
<path d="M150.07 180.07C153.36 180.07 156.64 180.07 159.93 180.07C160 181.39 160.31 189.32 159.6 189.83C158.65 190.51 151.57 190 150.04 189.96C150.05 186.66 150.06 183.37 150.07 180.07ZM190.5 179.98C193.64 180.01 196.79 180.04 199.93 180.07C199.94 183.37 199.95 186.66 199.96 189.96C196.81 189.96 193.65 189.96 190.5 189.97C190.5 186.64 190.5 183.31 190.5 179.98Z" fill="#5ab8cf" fill-rule="evenodd" stroke="#5ab8cf" stroke-width="0.25" stroke-linejoin="round"/>
<path d="M220.08 199.61C223.28 199.68 226.48 199.76 229.68 199.84C229.78 199.89 229.88 199.94 229.98 199.99C229.94 203.33 229.91 206.67 229.87 210.02C226.57 210.02 223.27 210.02 219.97 210.03C220.01 206.55 220.05 203.08 220.08 199.61Z" fill="#a9ec2f" fill-rule="evenodd" stroke="#a9ec2f" stroke-width="0.25" stroke-linejoin="round"/>
<path d="M219.95 190.13C221.39 189.99 228.67 189.51 229.6 190.17C230.3 190.68 230.08 198.8 229.68 199.84C226.48 199.76 223.28 199.68 220.08 199.61C220.04 196.45 220 193.29 219.95 190.13Z" fill="#f1d581" fill-rule="evenodd" stroke="#f1d581" stroke-width="0.25" stroke-linejoin="round"/>
<path d="M179.93 220.35C179.95 223.44 179.98 226.53 180 229.62C176.67 229.62 173.33 229.62 170 229.62C170.02 226.53 170.05 223.44 170.07 220.35C173.36 220.35 176.64 220.35 179.93 220.35Z" fill="#f6d971" fill-rule="evenodd" stroke="#f6d971" stroke-width="0.25" stroke-linejoin="round"/>
</svg>